<?xml version="1.0" standalone="no"?>
<!DOCTYPE svg PUBLIC "-//W3C//DTD SVG 20010904//EN"
 "http://www.w3.org/TR/2001/REC-SVG-20010904/DTD/svg10.dtd">
<svg version="1.0" xmlns="http://www.w3.org/2000/svg"
 width="512.000000" height="512.000000" viewBox="0 0 512.000000 512.000000"
 preserveAspectRatio="xMidYMid meet">

<g transform="translate(0.000000,512.000000) scale(0.100000,-0.100000)"
fill="#000000" stroke="none">
<path d="M2745 4935 l-25 -24 0 -456 0 -455 -775 0 -776 0 -24 -25 -25 -24 0
-271 0 -271 25 -24 c22 -23 31 -25 125 -25 62 0 100 -4 100 -10 0 -6 70 -708
155 -1560 85 -852 155 -1556 155 -1565 0 -9 11 -27 25 -40 l24 -25 831 0 831
0 24 25 c14 13 25 28 25 33 0 5 70 710 155 1566 85 855 155 1560 155 1566 0 6
39 10 100 10 94 0 103 2 125 25 l25 24 0 271 0 271 -25 24 -24 25 -376 0 -375
0 0 455 0 456 -25 24 c-24 25 -26 25 -215 25 -189 0 -191 0 -215 -25z m295
-535 l0 -400 -80 0 -80 0 0 400 0 400 80 0 80 0 0 -400z m800 -720 l0 -160
-1280 0 -1280 0 0 160 0 160 1280 0 1280 0 0 -160z m-251 -342 c-1 -45 -25
-257 -29 -261 -3 -3 -48 6 -100 19 -141 36 -323 50 -468 36 -164 -16 -287 -50
-438 -120 -239 -110 -367 -138 -593 -129 -134 5 -237 22 -336 54 -27 8 -51 17
-53 18 -3 3 -41 356 -42 388 0 16 56 17 1030 17 l1030 0 -1 -22z m-227 -383
c41 -8 99 -23 129 -34 50 -17 54 -20 51 -47 -1 -16 -58 -592 -127 -1281 -69
-689 -125 -1257 -125 -1263 0 -7 -229 -10 -730 -10 -501 0 -730 3 -730 10 0 6
-54 551 -120 1210 -66 659 -120 1209 -120 1221 0 16 4 20 18 14 58 -23 214
-46 353 -52 245 -9 390 21 620 128 140 65 266 105 379 119 100 12 309 5 402
-15z"/>
<path d="M3200 2720 l0 -80 80 0 80 0 0 80 0 80 -80 0 -80 0 0 -80z"/>
<path d="M1975 2456 c-60 -28 -87 -56 -114 -116 -17 -38 -21 -65 -21 -180 0
-115 4 -142 21 -180 27 -60 54 -88 114 -116 45 -21 64 -24 185 -24 121 0 140
3 186 24 28 13 63 39 77 58 49 64 57 97 57 240 0 119 -3 138 -24 183 -28 60
-56 87 -116 114 -38 17 -66 21 -180 21 -121 0 -140 -3 -185 -24z m320 -161
c24 -23 25 -31 25 -135 0 -104 -1 -112 -25 -135 -23 -24 -31 -25 -135 -25
-104 0 -112 1 -135 25 -24 23 -25 31 -25 135 0 104 1 112 25 135 23 24 31 25
135 25 104 0 112 -1 135 -25z"/>
<path d="M2960 2400 l0 -80 80 0 80 0 0 80 0 80 -80 0 -80 0 0 -80z"/>
<path d="M3200 2160 l0 -80 80 0 80 0 0 80 0 80 -80 0 -80 0 0 -80z"/>
<path d="M2695 1816 c-60 -28 -87 -56 -114 -116 -17 -38 -21 -65 -21 -180 0
-115 4 -142 21 -180 27 -60 54 -88 114 -116 45 -21 64 -24 185 -24 121 0 140
3 186 24 28 13 63 39 77 58 49 64 57 97 57 240 0 119 -3 138 -24 183 -28 60
-56 87 -116 114 -38 17 -66 21 -180 21 -121 0 -140 -3 -185 -24z m320 -161
c24 -23 25 -31 25 -135 0 -104 -1 -112 -25 -135 -23 -24 -31 -25 -135 -25
-104 0 -112 1 -135 25 -24 23 -25 31 -25 135 0 104 1 112 25 135 23 24 31 25
135 25 104 0 112 -1 135 -25z"/>
<path d="M2240 1520 l0 -80 80 0 80 0 0 80 0 80 -80 0 -80 0 0 -80z"/>
<path d="M1920 1360 l0 -80 80 0 80 0 0 80 0 80 -80 0 -80 0 0 -80z"/>
<path d="M2135 1096 c-60 -28 -87 -56 -114 -116 -17 -38 -21 -65 -21 -180 0
-115 4 -142 21 -180 27 -60 54 -88 114 -116 45 -21 64 -24 185 -24 121 0 140
3 186 24 28 13 63 39 77 58 49 64 57 97 57 240 0 119 -3 138 -24 183 -28 60
-56 87 -116 114 -38 17 -66 21 -180 21 -121 0 -140 -3 -185 -24z m320 -161
c24 -23 25 -31 25 -135 0 -104 -1 -112 -25 -135 -23 -24 -31 -25 -135 -25
-104 0 -112 1 -135 25 -24 23 -25 31 -25 135 0 104 1 112 25 135 23 24 31 25
135 25 104 0 112 -1 135 -25z"/>
</g>
</svg>
